<?xml version="1.0" standalone="no"?>
<!DOCTYPE svg PUBLIC "-//W3C//DTD SVG 20010904//EN"
 "http://www.w3.org/TR/2001/REC-SVG-20010904/DTD/svg10.dtd">
<svg version="1.0" xmlns="http://www.w3.org/2000/svg"
 width="900.000000pt" height="500.000000pt" viewBox="0 0 900.000000 500.000000"
 preserveAspectRatio="xMidYMid meet">

<g transform="translate(0.000000,500.000000) scale(0.100000,-0.100000)"
fill="#000000" stroke="none">
<path d="M4395 4814 c-16 -2 -73 -9 -125 -15 -138 -15 -324 -54 -431 -90 -110
-36 -268 -115 -335 -166 -44 -34 -49 -35 -78 -23 -121 49 -217 50 -318 3 -81
-38 -143 -101 -182 -183 -26 -55 -30 -77 -30 -140 0 -118 49 -195 169 -265 32
-19 44 -32 41 -44 -3 -9 -13 -61 -23 -116 -23 -134 -23 -530 1 -775 9 -96 19
-234 23 -306 l6 -130 -69 -13 c-97 -17 -180 -64 -216 -120 -28 -45 -37 -104
-18 -116 5 -3 18 -26 29 -50 10 -24 28 -48 39 -54 39 -21 107 -13 167 19 32
17 60 29 62 26 2 -2 -4 -93 -13 -202 -26 -284 -26 -722 0 -859 42 -231 122
-406 243 -536 l43 -46 -43 -31 c-63 -45 -128 -113 -143 -149 -18 -42 -18 -107
0 -141 20 -37 99 -101 135 -108 43 -9 122 31 216 109 43 37 99 75 123 84 44
16 45 16 136 -15 207 -72 399 -102 666 -102 330 0 587 48 813 152 l69 32 97
-101 c129 -136 176 -152 266 -90 53 36 85 86 85 132 0 50 -46 133 -111 200
l-61 64 50 61 c146 181 244 479 273 830 11 142 7 519 -7 658 l-7 64 44 -23
c56 -28 129 -31 157 -6 27 25 72 114 72 143 0 36 -23 76 -65 112 -49 43 -87
62 -159 76 l-61 13 -7 389 c-9 501 -26 723 -74 933 -8 35 -14 64 -12 65 2 2
24 14 50 29 150 86 199 258 120 419 -86 175 -274 248 -454 174 l-67 -27 -58
40 c-128 87 -302 153 -491 185 -155 27 -429 42 -537 30z m445 -84 c272 -34
493 -127 645 -271 170 -162 259 -357 314 -691 33 -197 41 -342 51 -868 5 -272
15 -556 22 -630 6 -74 12 -281 12 -460 1 -298 -1 -336 -23 -454 -55 -311 -138
-500 -288 -657 -213 -223 -519 -341 -956 -369 -444 -29 -849 70 -1115 270
-179 135 -285 320 -339 595 -25 125 -25 599 1 875 19 218 22 529 6 720 -38
451 -42 533 -37 715 12 428 109 700 323 906 182 175 435 273 838 324 123 16
401 13 546 -5z m929 -196 c67 -20 145 -90 177 -159 41 -88 30 -195 -28 -265
-19 -23 -83 -70 -95 -70 -6 0 -25 40 -42 90 -29 80 -31 93 -20 123 15 44 5 82
-31 118 -19 20 -39 29 -62 30 -27 0 -42 10 -81 54 l-47 53 42 15 c24 9 50 18
58 21 30 9 77 6 129 -10z m-2433 -55 c24 -6 47 -15 50 -20 3 -5 -17 -35 -45
-66 -28 -31 -51 -61 -51 -65 0 -5 -25 -5 -55 -2 -66 8 -99 -9 -121 -63 -20
-46 -10 -86 27 -118 l30 -25 -22 -69 -22 -70 -37 19 c-50 25 -106 90 -119 137
-16 55 -13 96 8 153 58 152 202 228 357 189z m2687 -1995 c53 -19 94 -50 112
-85 15 -29 9 -39 -12 -18 -6 6 -21 9 -34 7 -35 -5 -37 -41 -4 -66 51 -41 2
-56 -72 -23 -72 33 -83 51 -83 136 l0 75 28 -6 c15 -4 44 -13 65 -20z m-2903
-16 c0 -66 -14 -130 -29 -136 -9 -3 -32 -15 -51 -27 -19 -12 -52 -28 -74 -35
-32 -10 -40 -10 -53 2 -12 13 -11 17 11 32 30 19 34 51 8 65 -14 7 -25 6 -40
-5 -19 -13 -22 -13 -22 -1 0 52 124 124 218 126 27 1 32 -3 32 -21z m2549
-1958 c43 -53 63 -98 59 -133 l-3 -32 -29 52 c-32 58 -59 74 -84 49 -14 -13
-14 -19 -4 -34 19 -26 52 -95 52 -109 0 -20 -54 -15 -82 6 -13 11 -55 54 -93
96 -60 67 -66 78 -52 87 10 5 46 31 80 57 l62 48 33 -26 c18 -14 45 -42 61
-61z m-2143 -12 c93 -62 94 -63 72 -78 -13 -8 -57 -43 -98 -76 -93 -75 -134
-98 -166 -90 -32 8 -30 31 6 86 36 53 39 86 9 95 -25 8 -34 1 -69 -61 -17 -29
-30 -42 -35 -34 -11 17 4 61 32 98 22 29 136 122 150 122 2 0 47 -28 99 -62z"/>
<path d="M4922 4569 c-163 -24 -297 -117 -366 -255 -122 -243 18 -523 295
-589 221 -52 461 49 551 233 27 55 34 81 37 146 11 246 -135 432 -365 466 -38
5 -73 9 -79 9 -5 -1 -38 -6 -73 -10z m229 -88 c113 -43 195 -150 220 -285 43
-238 -161 -431 -436 -413 -143 8 -254 75 -316 189 -32 59 -34 69 -34 158 0 85
3 101 30 153 92 183 337 273 536 198z"/>
<path d="M4703 4230 c-41 -25 -63 -68 -63 -122 0 -115 129 -179 202 -100 52
55 61 106 31 169 -32 68 -108 91 -170 53z m135 -122 c28 -28 -3 -83 -33 -58
-8 7 -15 20 -15 29 0 17 18 41 30 41 3 0 11 -5 18 -12z"/>
<path d="M3804 4515 c-242 -52 -393 -259 -355 -487 24 -144 106 -253 237 -315
65 -31 88 -37 167 -41 113 -6 185 9 276 54 217 108 297 345 192 570 -83 176
-296 267 -517 219z m293 -89 c76 -35 152 -111 179 -181 14 -37 19 -75 19 -150
0 -89 -3 -106 -27 -150 -34 -66 -114 -140 -184 -171 -216 -95 -454 -22 -543
166 -23 48 -26 68 -26 155 0 115 17 164 81 234 81 91 192 132 339 128 85 -2
110 -7 162 -31z"/>
<path d="M3670 4213 c-74 -24 -104 -71 -98 -150 4 -49 10 -61 41 -90 91 -82
219 -6 205 121 -7 55 -33 91 -81 111 -39 16 -43 16 -67 8z m105 -168 c0 -23
-5 -30 -19 -30 -28 0 -43 29 -26 50 21 25 45 14 45 -20z"/>
<path d="M4380 3838 c-25 -13 -56 -40 -70 -61 -15 -22 -43 -46 -65 -56 -72
-33 -125 -111 -125 -183 0 -55 38 -119 81 -137 39 -16 39 -16 39 -76 1 -145
104 -234 195 -168 28 19 32 20 50 6 46 -35 76 -42 119 -27 76 27 86 45 86 151
l0 93 40 0 c67 0 140 79 140 153 0 51 -48 117 -120 165 -34 23 -66 42 -71 42
-5 0 -9 8 -9 18 0 85 -182 134 -290 80z m322 -189 c96 -62 123 -125 73 -174
-31 -32 -74 -32 -151 -1 -95 39 -137 41 -229 12 -131 -41 -150 -42 -179 -12
-49 48 -24 142 47 181 34 18 35 18 79 -3 65 -32 184 -31 253 2 28 14 52 25 54
25 2 1 26 -13 53 -30z m-129 -226 c36 -13 47 -22 47 -39 0 -11 3 -48 6 -81 6
-53 4 -63 -15 -82 -25 -25 -58 -27 -83 -4 -15 14 -18 32 -18 120 0 56 3 103 8
103 4 0 28 -8 55 -17z m-140 -85 c-4 -82 -8 -96 -30 -115 -31 -29 -49 -29 -68
1 -24 36 -42 143 -27 158 10 10 98 43 124 47 4 1 4 -41 1 -91z"/>
</g>
</svg>
